<svg width="13" height="14" viewBox="0 0 13 14" fill="none" xmlns="http://www.w3.org/2000/svg">
<path d="M3.85672 12.0301C3.91962 12.0931 3.99434 12.1432 4.07659 12.1773C4.15885 12.2114 4.24704 12.229 4.3361 12.229C4.42516 12.229 4.51334 12.2114 4.5956 12.1773C4.67786 12.1432 4.75258 12.0931 4.81547 12.0301L9.37089 7.47467C9.4211 7.42456 9.46094 7.36503 9.48812 7.29951C9.51531 7.23398 9.5293 7.16373 9.5293 7.09279C9.5293 7.02185 9.51531 6.95161 9.48812 6.88608C9.46094 6.82055 9.4211 6.76103 9.37089 6.71092L4.81547 2.1555C4.55006 1.89008 4.12214 1.89008 3.85672 2.1555C3.59131 2.42092 3.59131 2.84883 3.85672 3.11425L7.83256 7.09008L3.85131 11.0713C3.59131 11.3368 3.59131 11.7647 3.85672 12.0301Z" fill="#607089"/>
</svg>
