<svg width="24" height="25" viewBox="0 0 24 25" fill="none" xmlns="http://www.w3.org/2000/svg">
<circle cx="12" cy="12.5" r="12" fill="#1BA020"/>
<path d="M14.1468 13.0353L13.8779 13.303C13.8779 13.303 13.2379 13.9388 11.4918 12.2027C9.74568 10.4666 10.3856 9.83082 10.3856 9.83082L10.5546 9.66182C10.9724 9.24701 11.012 8.58046 10.6474 8.09355L9.90286 7.09905C9.4514 6.49632 8.57981 6.41655 8.06277 6.93064L7.13504 7.85246C6.87918 8.10773 6.70781 8.43746 6.72849 8.80382C6.78168 9.7416 7.20595 11.7584 9.57195 14.1114C12.0815 16.6062 14.4363 16.7055 15.3989 16.6156C15.7038 16.5873 15.9685 16.4325 16.1819 16.2197L17.0209 15.3854C17.5882 14.8222 17.4287 13.8561 16.703 13.462L15.5744 12.848C15.0981 12.5892 14.519 12.6654 14.1468 13.0353Z" fill="white"/>
</svg>
