<svg width="14" height="18" viewBox="0 0 14 18" fill="none" xmlns="http://www.w3.org/2000/svg">
<path d="M6.88109 0.890198C3.08684 0.890198 0 3.60723 0 6.9469C0 11.0915 6.1579 17.1761 6.42008 17.4331C6.66634 17.6745 7.09629 17.6741 7.3421 17.4331C7.60428 17.1761 13.7622 11.0915 13.7622 6.9469C13.7621 3.60723 10.6753 0.890198 6.88109 0.890198ZM6.88109 9.99419C4.97211 9.99419 3.41908 8.62718 3.41908 6.9469C3.41908 5.26661 4.97214 3.89963 6.88109 3.89963C8.79003 3.89963 10.3431 5.26664 10.3431 6.94693C10.3431 8.62721 8.79003 9.99419 6.88109 9.99419Z" fill="#D52121"/>
</svg>
