<svg width="23" height="24" viewBox="0 0 23 24" fill="none" xmlns="http://www.w3.org/2000/svg">
<path d="M13.796 0.101074C18.8788 0.101074 23 4.13413 23 9.10816C23 14.0822 18.8788 18.1152 13.796 18.1152C11.8415 18.1152 10.0288 17.5187 8.53884 16.5024L1.57843 23.3129C1.51563 23.3743 1.41384 23.3743 1.35428 23.3171L0.0429821 22.0339C-0.0176563 21.9745 -0.0122433 21.8728 0.0473118 21.8145L6.91677 15.092C5.47011 13.5015 4.59194 11.4055 4.59194 9.10816C4.59194 4.13413 8.71318 0.101074 13.796 0.101074ZM13.796 17.0556C18.281 17.0556 21.9172 13.4973 21.9172 9.10816C21.9172 4.71906 18.281 1.16073 13.796 1.16073C9.3109 1.16073 5.67476 4.71906 5.67476 9.10816C5.67476 13.4973 9.3109 17.0556 13.796 17.0556Z" fill="#5F5F5F"/>
</svg>
