<svg width="18" height="18" viewBox="0 0 18 18" fill="none" xmlns="http://www.w3.org/2000/svg">
<path d="M12.35 13.675C10.8429 14.8448 8.94674 15.3963 7.0474 15.2173C5.14806 15.0382 3.38834 14.1421 2.12642 12.7114C0.864499 11.2806 0.195247 9.4227 0.25489 7.51588C0.314534 5.60906 1.09859 3.79663 2.44746 2.44752C3.79656 1.09865 5.60899 0.314595 7.51582 0.254951C9.42264 0.195308 11.2805 0.86456 12.7113 2.12648C14.1421 3.3884 15.0382 5.14812 15.2172 7.04746C15.3962 8.9468 14.8447 10.843 13.675 12.35L17.475 16.15C17.5984 16.2646 17.6886 16.4104 17.7361 16.5719C17.7836 16.7335 17.7867 16.9049 17.745 17.068C17.7032 17.2312 17.6183 17.3801 17.4991 17.499C17.3798 17.6179 17.2307 17.7025 17.0675 17.7438C16.9045 17.7855 16.7333 17.7826 16.5718 17.7353C16.4104 17.688 16.2646 17.5981 16.15 17.475L12.35 13.675ZM13.375 7.75002C13.3861 7.00453 13.2488 6.26426 12.9712 5.57229C12.6936 4.88032 12.2812 4.25046 11.758 3.71934C11.2347 3.18822 10.6111 2.76645 9.9233 2.47857C9.23555 2.19068 8.49741 2.04243 7.75183 2.04243C7.00626 2.04243 6.26812 2.19068 5.58037 2.47857C4.89261 2.76645 4.26897 3.18822 3.74571 3.71934C3.22245 4.25046 2.81003 4.88032 2.53243 5.57229C2.25483 6.26426 2.11759 7.00453 2.12871 7.75002C2.15073 9.22685 2.75285 10.6357 3.805 11.6723C4.85714 12.7089 6.27485 13.2899 7.75183 13.2899C9.22882 13.2899 10.6465 12.7089 11.6987 11.6723C12.7508 10.6357 13.3529 9.22685 13.375 7.75002Z" fill="#607089"/>
</svg>
