<svg width="63" height="63" viewBox="0 0 63 63" fill="none" xmlns="http://www.w3.org/2000/svg">
<path d="M13.8004 44.5598C12.8119 44.5598 12.02 43.8114 12.02 42.8886C12.02 41.9658 12.8228 41.2173 13.8004 41.2173H25.5364C26.5249 41.2173 27.3167 41.9658 27.3167 42.8886C27.3167 43.8114 26.5194 44.5598 25.5364 44.5598H13.8004ZM33.3677 39.7153C32.8434 39.7153 32.3956 39.2949 32.3956 38.7822C32.3956 38.2901 32.8434 37.8697 33.3677 37.8697H35.9072C35.929 37.8697 35.9836 37.8697 36.0055 37.8697C36.9011 37.8902 37.6984 38.0543 38.3701 38.4541C39.1183 38.9002 39.6644 39.5769 39.9648 40.5817C39.9648 40.6022 39.9648 40.6278 39.9921 40.6534L40.2433 41.5865H62.0279C62.574 41.5865 63 42.0068 63 42.499C63 42.5913 62.9727 42.6835 62.9509 42.7809L60.4114 52.3881C60.3131 52.8084 59.9144 53.0904 59.4666 53.0904H43.5309C43.8805 54.3054 44.23 54.9616 44.6996 55.2641C45.2731 55.6127 46.267 55.6383 47.9381 55.6127H47.96H59.2154C59.7615 55.6127 60.1875 56.033 60.1875 56.5252C60.1875 57.0378 59.7397 57.4377 59.2154 57.4377H47.9545C45.8847 57.4582 44.6177 57.4121 43.5965 56.7815C42.5479 56.1253 42.0018 55.0077 41.4557 52.9725L38.1189 41.1148C38.1189 41.0892 38.1189 41.0892 38.0971 41.0687C37.9496 40.556 37.6984 40.2023 37.3489 40.0177C36.9994 39.8075 36.5297 39.7153 35.9782 39.7153C35.9508 39.7153 35.929 39.7153 35.9017 39.7153H33.3677ZM56.2992 58.5092C57.6208 58.5092 58.6911 59.514 58.6911 60.7546C58.6911 61.9952 57.6208 63 56.2992 63C54.9775 63 53.9072 61.9952 53.9072 60.7546C53.9072 59.514 54.9775 58.5092 56.2992 58.5092ZM45.8137 58.5092C47.1353 58.5092 48.2057 59.514 48.2057 60.7546C48.2057 61.9952 47.1353 63 45.8137 63C44.4921 63 43.4217 61.9952 43.4217 60.7546C43.4217 59.514 44.4976 58.5092 45.8137 58.5092ZM13.8004 17.2149C12.8119 17.2149 12.02 16.4613 12.02 15.5437C12.02 14.6209 12.8228 13.8724 13.8004 13.8724H41.3902C42.3786 13.8724 43.1705 14.6209 43.1705 15.5437C43.1705 16.4664 42.3732 17.2149 41.3902 17.2149H13.8004ZM4.1341 0H50.8981C52.0394 0 53.0771 0.435756 53.8198 1.13296C54.5625 1.83017 55.0267 2.80422 55.0267 3.87566V34.6246H51.4769V3.89104C51.4769 3.74237 51.4114 3.60395 51.3076 3.50142C51.1984 3.40402 51.051 3.3425 50.8926 3.3425H4.1341C3.97573 3.3425 3.82828 3.40402 3.71905 3.50142C3.60983 3.59883 3.55522 3.74237 3.55522 3.89104V54.4746C3.55522 54.6232 3.62075 54.7617 3.72451 54.8642C3.82828 54.9667 3.97573 55.0231 4.13956 55.0231H34.2033C34.5364 56.2484 34.9132 57.3198 35.4211 58.34H4.1341C2.99272 58.34 1.9551 57.9042 1.21238 57.207C0.464199 56.5149 0 55.5409 0 54.4694V3.88079C0 2.80934 0.464199 1.83017 1.20692 1.13296C1.94964 0.435756 2.99272 0 4.1341 0ZM13.8004 30.8874C12.8119 30.8874 12.02 30.1389 12.02 29.2161C12.02 28.2934 12.8228 27.5449 13.8004 27.5449H41.3902C42.3786 27.5449 43.1705 28.2934 43.1705 29.2161C43.1705 30.1389 42.3732 30.8874 41.3902 30.8874H13.8004Z" fill="#F81717"/>
</svg>
