<svg width="115" height="115" viewBox="0 0 115 115" fill="none" xmlns="http://www.w3.org/2000/svg">
<path d="M25.1911 81.3394C23.3868 81.3394 21.9413 79.9732 21.9413 78.2887C21.9413 76.6043 23.4067 75.238 25.1911 75.238H46.6141C48.4184 75.238 49.8639 76.6043 49.8639 78.2887C49.8639 79.9732 48.4085 81.3394 46.6141 81.3394H25.1911ZM60.9093 72.4961C59.9523 72.4961 59.1349 71.7288 59.1349 70.793C59.1349 69.8946 59.9523 69.1273 60.9093 69.1273H65.5448C65.5847 69.1273 65.6844 69.1273 65.7243 69.1273C67.3591 69.1647 68.8146 69.4642 70.0407 70.1941C71.4065 71.0082 72.4033 72.2435 72.9516 74.0776C72.9516 74.1151 72.9516 74.1619 73.0015 74.2086L73.46 75.9118H113.226C114.222 75.9118 115 76.6791 115 77.5775C115 77.746 114.95 77.9144 114.91 78.0922L110.275 95.629C110.095 96.3964 109.368 96.9111 108.55 96.9111H79.4613C80.0993 99.1289 80.7373 100.327 81.5946 100.879C82.6413 101.515 84.4556 101.562 87.5061 101.515H87.5459H108.092C109.089 101.515 109.866 102.283 109.866 103.181C109.866 104.117 109.049 104.847 108.092 104.847H87.536C83.7578 104.884 81.445 104.8 79.5809 103.649C77.6669 102.451 76.67 100.411 75.6731 96.6958L69.5822 75.0509C69.5822 75.0041 69.5822 75.0041 69.5423 74.9666C69.2731 74.0308 68.8146 73.3851 68.1766 73.0483C67.5386 72.6646 66.6813 72.4961 65.6744 72.4961C65.6246 72.4961 65.5847 72.4961 65.5348 72.4961H60.9093ZM102.768 106.802C105.181 106.802 107.135 108.637 107.135 110.901C107.135 113.166 105.181 115 102.768 115C100.356 115 98.402 113.166 98.402 110.901C98.402 108.637 100.356 106.802 102.768 106.802ZM83.6282 106.802C86.0407 106.802 87.9945 108.637 87.9945 110.901C87.9945 113.166 86.0407 115 83.6282 115C81.2158 115 79.2619 113.166 79.2619 110.901C79.2619 108.637 81.2257 106.802 83.6282 106.802ZM25.1911 31.424C23.3868 31.424 21.9413 30.0484 21.9413 28.3733C21.9413 26.6889 23.4067 25.3226 25.1911 25.3226H75.5535C77.3578 25.3226 78.8033 26.6889 78.8033 28.3733C78.8033 30.0578 77.3479 31.424 75.5535 31.424H25.1911ZM7.54638 0H92.9092C94.9926 0 96.8867 0.795427 98.2425 2.06811C99.5982 3.34079 100.446 5.11881 100.446 7.07462V63.2037H93.9658V7.10269C93.9658 6.83131 93.8462 6.57865 93.6568 6.39149C93.4574 6.21369 93.1883 6.10139 92.8992 6.10139H7.54638C7.25728 6.10139 6.98812 6.21369 6.78875 6.39149C6.58937 6.56929 6.48968 6.83131 6.48968 7.10269V99.4377C6.48968 99.7091 6.60931 99.9618 6.79872 100.149C6.98812 100.336 7.25728 100.439 7.55635 100.439H62.4346C63.0427 102.676 63.7305 104.631 64.6576 106.494H7.54638C5.4629 106.494 3.56883 105.698 2.21307 104.426C0.847347 103.162 0 101.384 0 99.4284V7.08398C0 5.12816 0.847347 3.34079 2.2031 2.06811C3.55886 0.795427 5.4629 0 7.54638 0ZM25.1911 56.3817C23.3868 56.3817 21.9413 55.0155 21.9413 53.331C21.9413 51.6466 23.4067 50.2803 25.1911 50.2803H75.5535C77.3578 50.2803 78.8033 51.6466 78.8033 53.331C78.8033 55.0155 77.3479 56.3817 75.5535 56.3817H25.1911Z" fill="#F81717"/>
</svg>
