<svg width="24" height="24" viewBox="0 0 24 24" fill="none" xmlns="http://www.w3.org/2000/svg">
<circle cx="12" cy="12" r="12" fill="#FF0000"/>
<g clip-path="url(#clip0_448_375)">
<path d="M19.6687 8.71569C19.5827 8.38408 19.4149 8.08175 19.1819 7.83883C18.949 7.5959 18.6592 7.42085 18.3412 7.3311C17.1772 7 12.4924 7 12.4924 7C12.4924 7 7.80735 7.01002 6.64333 7.34112C6.32537 7.43088 6.03551 7.60594 5.8026 7.84888C5.56969 8.09181 5.40186 8.39415 5.31583 8.72578C4.96374 10.8829 4.82716 14.1698 5.3255 16.2406C5.41154 16.5722 5.57937 16.8746 5.81228 17.1175C6.04519 17.3604 6.33505 17.5355 6.653 17.6252C7.81702 17.9563 12.5019 17.9563 12.5019 17.9563C12.5019 17.9563 17.1868 17.9563 18.3508 17.6252C18.6687 17.5355 18.9586 17.3604 19.1915 17.1175C19.4245 16.8746 19.5923 16.5722 19.6783 16.2406C20.0497 14.0805 20.1641 10.7956 19.6687 8.71569Z" fill="white"/>
<path d="M11.0012 14.8259L14.8876 12.4781L11.0012 10.1304V14.8259Z" fill="#FF0000"/>
</g>
<defs>
<clipPath id="clip0_448_375">
<rect width="15" height="11" fill="white" transform="translate(5 7)"/>
</clipPath>
</defs>
</svg>
