<svg width="24" height="24" viewBox="0 0 24 24" fill="none" xmlns="http://www.w3.org/2000/svg">
<circle cx="12" cy="12" r="12" fill="#038FDE"/>
<path d="M12.3675 10.704V10.3665H13.3778V15.108H12.8003C12.6859 15.1082 12.5762 15.0631 12.4951 14.9826C12.414 14.902 12.3681 14.7926 12.3675 14.6783C11.9458 14.987 11.4366 15.1538 10.914 15.153C10.261 15.153 9.63479 14.8937 9.17293 14.4322C8.71107 13.9706 8.4514 13.3445 8.451 12.6915C8.4514 12.0386 8.71107 11.4125 9.17293 10.9509C9.63479 10.4893 10.261 10.23 10.914 10.23C11.4363 10.2294 11.946 10.3955 12.3675 10.704ZM8.18925 8.84253V8.99628C8.18925 9.28278 8.151 9.51678 7.96425 9.79128L7.94175 9.81678C7.87953 9.88655 7.81901 9.95782 7.76025 10.0305L4.518 14.1H8.18925V14.676C8.18925 14.7328 8.17805 14.7891 8.15629 14.8415C8.13454 14.894 8.10265 14.9416 8.06246 14.9818C8.02226 15.0219 7.97455 15.0537 7.92205 15.0754C7.86955 15.097 7.81329 15.1081 7.7565 15.108H3V14.8365C3 14.5043 3.0825 14.3558 3.1875 14.2013L6.64275 9.92253H3.144V8.84253H8.18925ZM14.6025 15.108C14.507 15.108 14.4155 15.0701 14.3479 15.0026C14.2804 14.9351 14.2425 14.8435 14.2425 14.748V8.84253H15.3232V15.108H14.6025ZM18.5198 10.2C18.8454 10.1999 19.1678 10.264 19.4687 10.3885C19.7695 10.513 20.0429 10.6956 20.2732 10.9257C20.5036 11.1559 20.6863 11.4292 20.811 11.73C20.9357 12.0308 20.9999 12.3532 21 12.6788C21.0001 13.0044 20.9361 13.3268 20.8115 13.6277C20.687 13.9286 20.5045 14.202 20.2743 14.4323C20.0441 14.6626 19.7708 14.8453 19.4701 14.97C19.1693 15.0947 18.8469 15.1589 18.5212 15.159C17.8636 15.1592 17.2329 14.8982 16.7678 14.4333C16.3026 13.9685 16.0412 13.3379 16.041 12.6803C16.0408 12.0227 16.3018 11.3919 16.7667 10.9268C17.2316 10.4617 17.8621 10.2002 18.5198 10.2ZM10.9148 14.1398C11.1078 14.1442 11.2997 14.1099 11.4793 14.0391C11.6589 13.9683 11.8225 13.8623 11.9606 13.7273C12.0986 13.5924 12.2083 13.4312 12.2832 13.2533C12.3581 13.0753 12.3967 12.8842 12.3967 12.6912C12.3967 12.4981 12.3581 12.307 12.2832 12.129C12.2083 11.9511 12.0986 11.7899 11.9606 11.655C11.8225 11.52 11.6589 11.414 11.4793 11.3432C11.2997 11.2724 11.1078 11.2381 10.9148 11.2425C10.5363 11.2511 10.1762 11.4075 9.91153 11.6783C9.64689 11.949 9.49871 12.3126 9.49871 12.6912C9.49871 13.0697 9.64689 13.4333 9.91153 13.704C10.1762 13.9748 10.5363 14.1312 10.9148 14.1398ZM18.5198 14.1375C18.9066 14.1375 19.2777 13.9838 19.5512 13.7103C19.8248 13.4367 19.9785 13.0657 19.9785 12.6788C19.9785 12.2919 19.8248 11.9209 19.5512 11.6473C19.2777 11.3737 18.9066 11.22 18.5198 11.22C18.1329 11.22 17.7618 11.3737 17.4883 11.6473C17.2147 11.9209 17.061 12.2919 17.061 12.6788C17.061 13.0657 17.2147 13.4367 17.4883 13.7103C17.7618 13.9838 18.1329 14.1375 18.5198 14.1375Z" fill="white"/>
</svg>
