<svg width="139" height="63" viewBox="0 0 139 63" fill="none" xmlns="http://www.w3.org/2000/svg">
<path d="M1.85375 36V13.984H9.05375V22.272H15.8698V13.984H23.1018V36H15.8698V27.328H9.05375V36H1.85375ZM32.395 36.256C30.9657 36.256 29.803 36 28.907 35.488C28.0323 34.976 27.3923 34.2827 26.987 33.408C26.5817 32.5333 26.379 31.552 26.379 30.464V19.968H33.131V29.536C33.131 30.0267 33.2697 30.4107 33.547 30.688C33.8457 30.944 34.1977 31.072 34.603 31.072C35.0297 31.072 35.467 30.944 35.915 30.688L36.267 35.136C35.7977 35.4987 35.1897 35.776 34.443 35.968C33.6963 36.16 33.0137 36.256 32.395 36.256ZM29.771 18.208C28.7897 18.208 27.947 17.8987 27.243 17.28C26.539 16.64 26.187 15.8613 26.187 14.944C26.187 14.304 26.3577 13.7493 26.699 13.28C27.0403 12.7893 27.4883 12.4053 28.043 12.128C28.5977 11.8507 29.1737 11.712 29.771 11.712C30.4323 11.712 31.0297 11.8613 31.563 12.16C32.1177 12.4587 32.555 12.8533 32.875 13.344C33.2163 13.8347 33.387 14.368 33.387 14.944C33.387 15.584 33.2057 16.1493 32.843 16.64C32.5017 17.1307 32.0537 17.5147 31.499 17.792C30.9657 18.0693 30.3897 18.208 29.771 18.208ZM41.701 36.192C40.5277 36.192 39.6317 35.8827 39.013 35.264C38.3943 34.624 38.085 33.8453 38.085 32.928C38.085 31.9893 38.4157 31.2213 39.077 30.624C39.7383 30.0053 40.613 29.696 41.701 29.696C42.789 29.696 43.653 30.016 44.293 30.656C44.9543 31.296 45.285 32.0533 45.285 32.928C45.285 33.9093 44.9757 34.6987 44.357 35.296C43.7597 35.8933 42.8743 36.192 41.701 36.192ZM57.5358 36.512C55.2318 36.512 53.2264 36.0427 51.5198 35.104C49.8344 34.1653 48.5224 32.864 47.5838 31.2C46.6451 29.536 46.1758 27.616 46.1758 25.44C46.1758 23.1147 46.6664 21.056 47.6478 19.264C48.6291 17.472 50.0051 16.064 51.7758 15.04C53.5464 14.016 55.6051 13.504 57.9518 13.504C60.5118 13.504 62.5491 14.016 64.0638 15.04L63.1038 20.064C61.7598 19.488 60.3624 19.2 58.9118 19.2C57.1624 19.2 55.7864 19.7227 54.7838 20.768C53.7811 21.8133 53.2798 23.264 53.2798 25.12C53.2798 26.9973 53.7278 28.4587 54.6238 29.504C55.5411 30.5493 56.7038 31.072 58.1118 31.072C58.6238 31.072 59.0504 31.0293 59.3918 30.944V25.472L64.9278 24.832V34.848C63.7118 35.4027 62.4744 35.8187 61.2158 36.096C59.9571 36.3733 58.7304 36.512 57.5358 36.512ZM77.8958 31.776C78.5144 31.776 79.1651 31.712 79.8478 31.584C80.5518 31.456 81.2664 31.2213 81.9918 30.88L82.7598 35.008C81.9704 35.4133 81.1064 35.7227 80.1678 35.936C79.2504 36.1493 78.1944 36.256 76.9998 36.256C74.8451 36.256 73.0318 35.904 71.5598 35.2C70.1091 34.496 69.0104 33.5253 68.2638 32.288C67.5171 31.0507 67.1438 29.6213 67.1438 28C67.1438 26.336 67.5384 24.8853 68.3278 23.648C69.1384 22.4107 70.2158 21.4507 71.5598 20.768C72.9038 20.0853 74.3864 19.744 76.0078 19.744C78.4184 19.744 80.2638 20.5013 81.5438 22.016C82.8238 23.5093 83.4638 25.6427 83.4638 28.416L73.9278 29.632C74.6318 31.0613 75.9544 31.776 77.8958 31.776ZM73.4158 26.688L78.4398 25.632C78.3544 24.9493 78.1198 24.448 77.7358 24.128C77.3518 23.7867 76.8718 23.616 76.2958 23.616C75.4424 23.616 74.7598 23.9147 74.2478 24.512C73.7571 25.088 73.4798 25.8133 73.4158 26.688ZM93.5978 36.256C91.8058 36.256 90.2591 35.904 88.9578 35.2C87.6564 34.496 86.6538 33.536 85.9498 32.32C85.2458 31.0827 84.8938 29.664 84.8938 28.064C84.8938 26.4853 85.2564 25.0667 85.9818 23.808C86.7071 22.5493 87.7204 21.5573 89.0218 20.832C90.3444 20.1067 91.8698 19.744 93.5978 19.744C95.6671 19.744 97.2991 20.1707 98.4938 21.024L97.7898 25.376C97.2564 25.1413 96.7551 24.9813 96.2858 24.896C95.8164 24.7893 95.3684 24.736 94.9418 24.736C93.8964 24.736 93.0644 25.0347 92.4458 25.632C91.8484 26.208 91.5498 26.9973 91.5498 28C91.5498 28.9813 91.8484 29.7813 92.4458 30.4C93.0431 30.9973 93.8324 31.296 94.8138 31.296C95.6671 31.296 96.6698 31.1147 97.8218 30.752L98.4298 35.232C97.7258 35.5733 96.9898 35.8293 96.2218 36C95.4751 36.1707 94.6004 36.256 93.5978 36.256ZM107.633 36H100.881V14.912L107.633 13.92V24.896L115.153 18.784L118.609 23.232L114.097 27.008C114.396 28.5227 114.833 29.5893 115.409 30.208C115.985 30.8053 116.732 31.104 117.649 31.104C118.033 31.104 118.492 31.04 119.025 30.912L118.545 36.064C118.14 36.1493 117.777 36.2027 117.457 36.224C117.137 36.2453 116.828 36.256 116.529 36.256C114.417 36.256 112.743 35.7547 111.505 34.752C110.289 33.728 109.393 32.2347 108.817 30.272L107.633 31.296V36ZM128.86 36.256C127.046 36.256 125.446 35.904 124.06 35.2C122.673 34.496 121.585 33.5253 120.796 32.288C120.028 31.0293 119.644 29.5893 119.644 27.968C119.644 26.304 120.038 24.864 120.828 23.648C121.638 22.4107 122.737 21.4507 124.124 20.768C125.51 20.0853 127.1 19.744 128.892 19.744C130.726 19.744 132.337 20.096 133.724 20.8C135.11 21.4827 136.188 22.4427 136.956 23.68C137.724 24.896 138.108 26.3253 138.108 27.968C138.108 29.6107 137.713 31.0613 136.924 32.32C136.156 33.5573 135.078 34.528 133.692 35.232C132.305 35.9147 130.694 36.256 128.86 36.256ZM128.924 31.456C129.798 31.456 130.513 31.136 131.068 30.496C131.644 29.8347 131.932 28.992 131.932 27.968C131.932 26.944 131.654 26.112 131.1 25.472C130.545 24.8107 129.841 24.48 128.988 24.48C128.07 24.48 127.324 24.8107 126.748 25.472C126.193 26.112 125.916 26.944 125.916 27.968C125.916 28.992 126.193 29.8347 126.748 30.496C127.324 31.136 128.049 31.456 128.924 31.456Z" fill="#0FCBFF"/>
<path d="M9.34094 58V46.976H13.0689C14.8823 46.976 16.2476 47.2747 17.1649 47.872C18.0929 48.4587 18.5569 49.328 18.5569 50.48C18.5569 51.28 18.3543 51.9627 17.9489 52.528C17.5543 53.0827 16.9943 53.5093 16.2689 53.808C15.5436 54.096 14.6903 54.24 13.7089 54.24H12.8769V58H9.34094ZM13.5649 52.016C14.1303 52.016 14.5676 51.8987 14.8769 51.664C15.1863 51.4293 15.3409 51.0773 15.3409 50.608C15.3409 50.1707 15.1916 49.8453 14.8929 49.632C14.5943 49.408 14.1623 49.296 13.5969 49.296H12.8769V52.016H13.5649ZM19.7766 58V47.456L23.1526 46.96V51.632C23.3766 51.0773 23.7286 50.6453 24.2086 50.336C24.6886 50.0267 25.2646 49.872 25.9366 49.872C26.9819 49.872 27.7926 50.2347 28.3686 50.96C28.9446 51.6747 29.2326 52.688 29.2326 54V58H25.8566V53.824C25.8566 52.8747 25.4726 52.4 24.7046 52.4C24.2459 52.4 23.8726 52.5707 23.5846 52.912C23.2966 53.2427 23.1526 53.6907 23.1526 54.256V58H19.7766ZM34.9228 58.128C33.5681 58.128 32.5068 57.7867 31.7388 57.104C30.9815 56.4107 30.6028 55.456 30.6028 54.24V49.984H33.8988V54.384C33.8988 54.8107 33.9895 55.1253 34.1708 55.328C34.3628 55.5307 34.6188 55.632 34.9388 55.632C35.2481 55.632 35.4881 55.5307 35.6588 55.328C35.8401 55.1253 35.9308 54.8107 35.9308 54.384V49.984H39.1628V54.24C39.1628 55.4667 38.7895 56.4213 38.0428 57.104C37.3068 57.7867 36.2668 58.128 34.9228 58.128ZM34.8908 62.128C34.4001 62.128 33.9788 61.968 33.6268 61.648C33.2748 61.3387 33.0988 60.9547 33.0988 60.496C33.0988 60.1867 33.1841 59.9093 33.3548 59.664C33.5255 59.4187 33.7495 59.2267 34.0268 59.088C34.3041 58.9493 34.5921 58.88 34.8908 58.88C35.2215 58.88 35.5201 58.9547 35.7868 59.104C36.0641 59.2533 36.2828 59.4507 36.4428 59.696C36.6135 59.9413 36.6988 60.208 36.6988 60.496C36.6988 60.816 36.6081 61.0987 36.4268 61.344C36.2561 61.5893 36.0321 61.7813 35.7548 61.92C35.4881 62.0587 35.2001 62.128 34.8908 62.128ZM47.0432 58H43.6672V47.456L47.0432 46.96V52.448L50.8032 49.392L52.5312 51.616L50.2752 53.504C50.4245 54.2613 50.6432 54.7947 50.9312 55.104C51.2192 55.4027 51.5925 55.552 52.0512 55.552C52.2432 55.552 52.4725 55.52 52.7392 55.456L52.4992 58.032C52.2965 58.0747 52.1152 58.1013 51.9552 58.112C51.7952 58.1227 51.6405 58.128 51.4912 58.128C50.4352 58.128 49.5979 57.8773 48.9792 57.376C48.3712 56.864 47.9232 56.1173 47.6352 55.136L47.0432 55.648V58ZM56.6428 58.128C55.9281 58.128 55.3468 58 54.8988 57.744C54.4615 57.488 54.1415 57.1413 53.9388 56.704C53.7361 56.2667 53.6348 55.776 53.6348 55.232V49.984H57.0108V54.768C57.0108 55.0133 57.0801 55.2053 57.2188 55.344C57.3681 55.472 57.5441 55.536 57.7468 55.536C57.9601 55.536 58.1788 55.472 58.4028 55.344L58.5788 57.568C58.3441 57.7493 58.0401 57.888 57.6668 57.984C57.2935 58.08 56.9521 58.128 56.6428 58.128ZM55.3308 49.104C54.8401 49.104 54.4188 48.9493 54.0668 48.64C53.7148 48.32 53.5388 47.9307 53.5388 47.472C53.5388 47.152 53.6241 46.8747 53.7948 46.64C53.9655 46.3947 54.1895 46.2027 54.4668 46.064C54.7441 45.9253 55.0321 45.856 55.3308 45.856C55.6615 45.856 55.9601 45.9307 56.2268 46.08C56.5041 46.2293 56.7228 46.4267 56.8828 46.672C57.0535 46.9173 57.1388 47.184 57.1388 47.472C57.1388 47.792 57.0481 48.0747 56.8668 48.32C56.6961 48.5653 56.4721 48.7573 56.1948 48.896C55.9281 49.0347 55.6401 49.104 55.3308 49.104ZM64.2994 55.888C64.6088 55.888 64.9341 55.856 65.2754 55.792C65.6274 55.728 65.9848 55.6107 66.3474 55.44L66.7314 57.504C66.3368 57.7067 65.9048 57.8613 65.4354 57.968C64.9768 58.0747 64.4488 58.128 63.8514 58.128C62.7741 58.128 61.8674 57.952 61.1314 57.6C60.4061 57.248 59.8568 56.7627 59.4834 56.144C59.1101 55.5253 58.9234 54.8107 58.9234 54C58.9234 53.168 59.1208 52.4427 59.5154 51.824C59.9208 51.2053 60.4594 50.7253 61.1314 50.384C61.8034 50.0427 62.5448 49.872 63.3554 49.872C64.5608 49.872 65.4834 50.2507 66.1234 51.008C66.7634 51.7547 67.0834 52.8213 67.0834 54.208L62.3154 54.816C62.6674 55.5307 63.3288 55.888 64.2994 55.888ZM62.0594 53.344L64.5714 52.816C64.5288 52.4747 64.4114 52.224 64.2194 52.064C64.0274 51.8933 63.7874 51.808 63.4994 51.808C63.0728 51.808 62.7314 51.9573 62.4754 52.256C62.2301 52.544 62.0914 52.9067 62.0594 53.344ZM63.1314 62.128C62.6408 62.128 62.2194 61.968 61.8674 61.648C61.5154 61.3387 61.3394 60.9547 61.3394 60.496C61.3394 60.1867 61.4248 59.9093 61.5954 59.664C61.7661 59.4187 61.9901 59.2267 62.2674 59.088C62.5448 58.9493 62.8328 58.88 63.1314 58.88C63.4621 58.88 63.7608 58.9547 64.0274 59.104C64.3048 59.2533 64.5234 59.4507 64.6834 59.696C64.8541 59.9413 64.9394 60.208 64.9394 60.496C64.9394 60.816 64.8488 61.0987 64.6674 61.344C64.4968 61.5893 64.2728 61.7813 63.9954 61.92C63.7288 62.0587 63.4408 62.128 63.1314 62.128ZM59.6754 48.944L61.6434 44.96H64.6034L66.5714 48.944H63.9154L63.3074 47.248L63.1154 46.64L62.9554 47.248L62.3314 48.944H59.6754ZM68.1984 58V49.984H71.5264V51.728C71.7718 51.1307 72.1344 50.672 72.6144 50.352C73.1051 50.032 73.6864 49.872 74.3584 49.872C75.4038 49.872 76.2144 50.2347 76.7904 50.96C77.3664 51.6747 77.6544 52.688 77.6544 54V58H74.2784V53.824C74.2784 52.8747 73.8944 52.4 73.1264 52.4C72.6678 52.4 72.2944 52.5707 72.0064 52.912C71.7184 53.2427 71.5744 53.6907 71.5744 54.256V58H68.1984ZM88.1356 58.128C87.4956 58.128 86.9622 57.9893 86.5356 57.712C86.1089 57.4347 85.7676 57.0347 85.5116 56.512V58H82.1516V47.456L85.5436 46.96V51.632C85.7996 51.024 86.1622 50.5813 86.6316 50.304C87.1116 50.016 87.6129 49.872 88.1356 49.872C88.8822 49.872 89.5489 50.048 90.1356 50.4C90.7329 50.7413 91.2022 51.216 91.5436 51.824C91.8956 52.432 92.0716 53.1413 92.0716 53.952C92.0716 54.7627 91.8956 55.4827 91.5436 56.112C91.2022 56.7413 90.7329 57.2373 90.1356 57.6C89.5489 57.952 88.8822 58.128 88.1356 58.128ZM87.0956 55.6C87.5542 55.6 87.9382 55.4453 88.2476 55.136C88.5569 54.8267 88.7116 54.448 88.7116 54C88.7116 53.552 88.5569 53.1733 88.2476 52.864C87.9382 52.5547 87.5542 52.4 87.0956 52.4C86.6582 52.4 86.2849 52.5493 85.9756 52.848C85.6662 53.136 85.5116 53.5093 85.5116 53.968C85.5116 54.4267 85.6662 54.816 85.9756 55.136C86.2849 55.4453 86.6582 55.6 87.0956 55.6ZM97.4846 58.128C96.5779 58.128 95.7779 57.952 95.0846 57.6C94.3912 57.248 93.8472 56.7627 93.4526 56.144C93.0686 55.5147 92.8766 54.7947 92.8766 53.984C92.8766 53.152 93.0739 52.432 93.4686 51.824C93.8739 51.2053 94.4232 50.7253 95.1166 50.384C95.8099 50.0427 96.6046 49.872 97.5006 49.872C98.4179 49.872 99.2232 50.048 99.9166 50.4C100.61 50.7413 101.149 51.2213 101.533 51.84C101.917 52.448 102.109 53.1627 102.109 53.984C102.109 54.8053 101.911 55.5307 101.517 56.16C101.133 56.7787 100.594 57.264 99.9006 57.616C99.2072 57.9573 98.4019 58.128 97.4846 58.128ZM97.5166 55.728C97.9539 55.728 98.3112 55.568 98.5886 55.248C98.8766 54.9173 99.0206 54.496 99.0206 53.984C99.0206 53.472 98.8819 53.056 98.6046 52.736C98.3272 52.4053 97.9752 52.24 97.5486 52.24C97.0899 52.24 96.7166 52.4053 96.4286 52.736C96.1512 53.056 96.0126 53.472 96.0126 53.984C96.0126 54.496 96.1512 54.9173 96.4286 55.248C96.7166 55.568 97.0792 55.728 97.5166 55.728ZM99.2766 49.104L93.9486 46.976L95.5646 44.112L100.253 47.392L99.2766 49.104ZM108.868 58.128C108.388 58.128 107.903 58.08 107.412 57.984C106.922 57.888 106.479 57.7547 106.084 57.584L106.548 55.568C106.794 55.696 107.13 55.808 107.556 55.904C107.983 55.9893 108.362 56.032 108.692 56.032C109.226 56.032 109.492 55.888 109.492 55.6C109.492 55.4613 109.407 55.36 109.236 55.296C109.076 55.232 108.863 55.1787 108.596 55.136C108.34 55.0827 108.063 55.0187 107.764 54.944C107.466 54.8587 107.183 54.736 106.916 54.576C106.66 54.4053 106.447 54.1653 106.276 53.856C106.116 53.5467 106.036 53.1413 106.036 52.64C106.036 51.7973 106.367 51.1253 107.028 50.624C107.7 50.1227 108.618 49.872 109.78 49.872C110.228 49.872 110.644 49.904 111.028 49.968C111.423 50.032 111.796 50.1653 112.148 50.368L111.812 52.32C111.247 52.0853 110.655 51.968 110.036 51.968C109.642 51.968 109.354 52 109.172 52.064C109.002 52.128 108.916 52.2347 108.916 52.384C108.916 52.5013 109.002 52.592 109.172 52.656C109.343 52.72 109.562 52.784 109.828 52.848C110.106 52.9013 110.394 52.9813 110.692 53.088C110.991 53.184 111.274 53.3227 111.54 53.504C111.818 53.6853 112.042 53.9307 112.212 54.24C112.383 54.5387 112.468 54.928 112.468 55.408C112.468 56.2613 112.154 56.928 111.524 57.408C110.895 57.888 110.01 58.128 108.868 58.128ZM117.125 58.128C116.389 58.128 115.722 57.952 115.125 57.6C114.528 57.2373 114.053 56.7413 113.701 56.112C113.36 55.4827 113.189 54.7627 113.189 53.952C113.189 53.1413 113.36 52.432 113.701 51.824C114.053 51.216 114.528 50.7413 115.125 50.4C115.722 50.048 116.389 49.872 117.125 49.872C117.648 49.872 118.154 50.016 118.645 50.304C119.136 50.592 119.514 51.0667 119.781 51.728V49.984H123.109V58H119.749V56.512C119.493 57.0347 119.152 57.4347 118.725 57.712C118.298 57.9893 117.765 58.128 117.125 58.128ZM118.165 55.6C118.602 55.6 118.976 55.4453 119.285 55.136C119.594 54.816 119.749 54.4267 119.749 53.968C119.749 53.5093 119.594 53.136 119.285 52.848C118.976 52.5493 118.602 52.4 118.165 52.4C117.706 52.4 117.322 52.5547 117.013 52.864C116.704 53.1733 116.549 53.552 116.549 54C116.549 54.448 116.704 54.8267 117.013 55.136C117.322 55.4453 117.706 55.6 118.165 55.6ZM116.581 49.104L115.605 47.392L120.293 44.112L121.909 46.976L116.581 49.104ZM128.138 58.128C127.381 58.128 126.762 58 126.282 57.744C125.813 57.488 125.471 57.1413 125.258 56.704C125.045 56.2667 124.938 55.776 124.938 55.232V51.968H123.914V49.984H125.178L126.666 47.456H128.314V49.984H130.17V51.968H128.314V54.768C128.314 55.0133 128.394 55.2053 128.554 55.344C128.714 55.472 128.922 55.536 129.178 55.536C129.434 55.536 129.69 55.472 129.946 55.344L130.186 57.568C129.93 57.7493 129.605 57.888 129.21 57.984C128.815 58.08 128.458 58.128 128.138 58.128Z" fill="#131313" fill-opacity="0.5"/>
</svg>
